<svg aria-hidden="true" style="position: absolute; width: 0; height: 0; overflow: hidden;" version="1.1" xmlns="http://www.w3.org/2000/svg" xmlns:xlink="http://www.w3.org/1999/xlink">
<defs>
<symbol id="icon-inst" viewBox="0 0 25 25">
<path fill-rule="evenodd" clip-rule="evenodd" d="M16.7461 3.80029H8.74609C5.98467 3.80029 3.74609 6.03887 3.74609 8.80029V16.8003C3.74609 19.5617 5.98467 21.8003 8.74609 21.8003H16.7461C19.5075 21.8003 21.7461 19.5617 21.7461 16.8003V8.80029C21.7461 6.03887 19.5075 3.80029 16.7461 3.80029ZM19.9961 16.8003C19.9906 18.5929 18.5387 20.0448 16.7461 20.0503H8.74609C6.95344 20.0448 5.50158 18.5929 5.49609 16.8003V8.80029C5.50158 7.00764 6.95344 5.55578 8.74609 5.55029H16.7461C18.5387 5.55578 19.9906 7.00764 19.9961 8.80029V16.8003ZM17.4961 9.05029C18.0484 9.05029 18.4961 8.60257 18.4961 8.05029C18.4961 7.49801 18.0484 7.05029 17.4961 7.05029C16.9438 7.05029 16.4961 7.49801 16.4961 8.05029C16.4961 8.60257 16.9438 9.05029 17.4961 9.05029ZM12.7461 8.30029C10.2608 8.30029 8.24609 10.315 8.24609 12.8003C8.24609 15.2856 10.2608 17.3003 12.7461 17.3003C15.2314 17.3003 17.2461 15.2856 17.2461 12.8003C17.2488 11.606 16.7755 10.4599 15.931 9.61537C15.0865 8.77088 13.9404 8.29763 12.7461 8.30029ZM9.99609 12.8003C9.99609 14.3191 11.2273 15.5503 12.7461 15.5503C14.2649 15.5503 15.4961 14.3191 15.4961 12.8003C15.4961 11.2815 14.2649 10.0503 12.7461 10.0503C11.2273 10.0503 9.99609 11.2815 9.99609 12.8003Z" ></path>
</symbol>
<symbol id="icon-ln" viewBox="0 0 31 32">
 <path fill-rule="evenodd" clip-rule="evenodd" d="M6 4.67871C4.89543 4.67871 4 5.57414 4 6.67871V26.6787C4 27.7832 4.89543 28.6787 6 28.6787H26C27.1045 28.6787 28 27.7832 28 26.6787V6.67871C28 5.57414 27.1045 4.67871 26 4.67871H6ZM11.361 10.0157C11.3685 11.2907 10.4141 12.0763 9.28164 12.0707C8.21476 12.065 7.28476 11.2157 7.29039 10.0176C7.29601 8.89067 8.18664 7.98504 9.34352 8.0113C10.5173 8.03755 11.3685 8.89818 11.361 10.0157ZM16.3729 13.6944H13.0129H13.0111V25.1075H16.5623V24.8412C16.5623 24.3347 16.5619 23.828 16.5615 23.3212C16.5604 21.9695 16.5592 20.6163 16.5661 19.265C16.568 18.9368 16.5829 18.5956 16.6673 18.2824C16.9841 17.1124 18.0361 16.3568 19.2099 16.5426C19.9636 16.6606 20.4623 17.0975 20.6723 17.8082C20.8017 18.2524 20.8599 18.7306 20.8655 19.1938C20.8807 20.5906 20.8785 21.9874 20.8764 23.3843C20.8756 23.8774 20.8748 24.3707 20.8748 24.8638V25.1056H24.4373V24.8319C24.4373 24.2292 24.4371 23.6267 24.4367 23.0242C24.436 21.5182 24.4352 20.0122 24.4392 18.5056C24.4411 17.825 24.368 17.1538 24.2011 16.4956C23.9517 15.5168 23.4361 14.7068 22.598 14.1219C22.0036 13.7056 21.3511 13.4375 20.6217 13.4075C20.5387 13.4041 20.4549 13.3995 20.3708 13.395C19.9979 13.3748 19.6188 13.3544 19.2623 13.4263C18.2423 13.6306 17.3461 14.0975 16.6692 14.9206C16.5905 15.015 16.5136 15.1108 16.3988 15.2539L16.3729 15.2863V13.6944ZM7.57552 25.1112H11.1099V13.7018H7.57552V25.1112Z" ></path>
</symbol>
<symbol id="icon-yt" viewBox="0 0 47 32">
<path d="M45.122 4.985c-0.256-0.949-0.756-1.814-1.45-2.51s-1.559-1.198-2.507-1.456c-3.517-0.966-17.586-0.981-17.586-0.981s-14.066-0.016-17.585 0.907c-0.948 0.27-1.81 0.779-2.505 1.478s-1.198 1.565-1.461 2.515c-0.927 3.517-0.936 10.81-0.936 10.81s-0.009 7.33 0.912 10.81c0.516 1.925 2.032 3.445 3.959 3.964 3.553 0.966 17.583 0.981 17.583 0.981s14.069 0.016 17.586-0.905c0.949-0.258 1.814-0.758 2.51-1.452s1.198-1.558 1.458-2.507c0.93-3.514 0.936-10.806 0.936-10.806s0.045-7.332-0.914-10.849zM19.079 22.505l0.011-13.474 11.693 6.748-11.704 6.726z"></path>
</symbol>
<symbol id="icon-logo" viewBox="0 0 86 32">
<path d="M14.083 0.129c-0.168 0-0.346 0-0.512 0.020-1.935 0.161-3.712 0.983-4.978 2.48-1.378 1.629-1.711 3.346-1.695 5.42l-3.686-0.006c-0.165-0-0.336-0.005-0.509-0.010-0.481-0.013-0.98-0.027-1.431 0.055-0.272 0.050-0.509 0.182-0.7 0.381-0.335 0.348-0.343 0.788-0.321 1.239 0.034 0.71 0.095 1.422 0.156 2.133 0.033 0.387 0.066 0.773 0.095 1.159l0.612 7.905 0.298 3.817c0.015 0.188 0.026 0.379 0.038 0.57 0.042 0.683 0.085 1.376 0.265 2.030 0.312 1.111 0.929 2.113 1.782 2.89 0.746 0.677 1.647 1.16 2.623 1.406 0.826 0.199 1.786 0.177 2.688 0.156 0.268-0.006 0.532-0.013 0.785-0.013l9.295 0.001c0.237 0 0.48 0.006 0.727 0.012 0.8 0.019 1.635 0.039 2.383-0.136 1.052-0.245 2.117-0.823 2.885-1.584 0.715-0.709 1.286-1.656 1.536-2.634 0.191-0.748 0.239-1.569 0.285-2.366 0.015-0.257 0.030-0.511 0.049-0.759l0.407-5.235 0.507-6.428c0.025-0.318 0.056-0.638 0.088-0.96 0.069-0.697 0.138-1.399 0.137-2.088-0.001-0.424-0.090-0.819-0.394-1.134-0.209-0.217-0.55-0.323-0.84-0.37-0.433-0.071-0.908-0.058-1.368-0.046-0.17 0.005-0.338 0.009-0.5 0.009-1.159-0.002-2.319 0.002-3.478 0.012l-0.050 0.001c0.027-2.221-0.467-4.127-2.064-5.752-1.334-1.383-3.171-2.167-5.092-2.175l-0.024 0zM21.108 12.799l0.063 0.004c0.002 0.004 0.003 0.008 0.005 0.012 0.001 0.002 0.002 0.004 0.002 0.006 0.003 0.007 0.005 0.012 0.007 0.017l0.003 0.006c0.011 0.026 0.014 0.031 0.013 0.073-0.020 2.724-0.749 6.231-2.682 8.225-1.79 1.847-4.57 2.754-7.105 2.804 1.181-2.221 3.078-4.327 5.036-5.891 0.303-0.242 0.62-0.46 0.937-0.679 0.204-0.141 0.408-0.282 0.609-0.429 0.195-0.143 0.457-0.337 0.485-0.597 0.025-0.24-0.102-0.426-0.253-0.598-0.21-0.122-0.365-0.173-0.605-0.102-0.341 0.1-0.685 0.353-0.995 0.58-0.082 0.060-0.162 0.119-0.239 0.173-2.51 1.777-4.595 4.087-6.107 6.765-0.051-2.179 0.445-4.004 1.781-5.756 2.005-2.63 5.843-4.175 9.046-4.612zM1.626 9.408l24.899-0c-0.088 0.839-0.146 1.685-0.203 2.53-0.032 0.471-0.064 0.941-0.101 1.41l-0.67 8.401-0.251 3.096c-0.011 0.134-0.021 0.27-0.032 0.405-0.040 0.534-0.081 1.073-0.184 1.596-0.106 0.537-0.311 1.003-0.59 1.471-0.107 0.163-0.224 0.32-0.349 0.47-0.722 0.863-1.907 1.505-3.032 1.59-0.613 0.046-1.243 0.035-1.868 0.023-0.27-0.005-0.54-0.010-0.806-0.010l-9.276 0c-0.198 0-0.4 0.004-0.603 0.008-0.623 0.013-1.262 0.026-1.861-0.077-0.786-0.137-1.52-0.483-2.126-1.002-0.725-0.612-1.246-1.431-1.492-2.348-0.168-0.608-0.21-1.255-0.251-1.89-0.010-0.16-0.021-0.319-0.033-0.476l-0.244-3.15-0.927-12.047zM21.661 11.34l-0.019 0.002c-3.78 0.437-8.082 1.992-10.526 5.053-1.57 1.968-2.428 4.527-2.145 7.048 0.062 0.553 0.188 1.082 0.368 1.609-0.020 0.052-0.045 0.115-0.074 0.186-0.31 0.78-1.031 2.592-0.78 3.128 0.073 0.155 0.22 0.259 0.38 0.31 0.066 0.021 0.133 0.033 0.201 0.041 0.212-0.035 0.407-0.079 0.535-0.268 0.137-0.204 0.277-0.693 0.397-1.112 0.057-0.199 0.11-0.383 0.155-0.512 0.155-0.441 0.332-0.875 0.508-1.308l0.002-0.005c0.021-0.051 0.041-0.101 0.062-0.152 3.117 0.009 6.446-0.966 8.7-3.191 2.522-2.488 3.157-6.501 3.162-9.897 0-0.268-0.018-0.585-0.214-0.79-0.12-0.126-0.302-0.164-0.47-0.16-0.081 0.002-0.162 0.010-0.243 0.019zM13.78 1.491c0.121-0.007 0.242-0.014 0.363-0.013 1.48 0.010 2.963 0.673 4.003 1.716 1.416 1.421 1.706 2.928 1.709 4.856l-11.528 0.005c-0.047-1.657 0.22-3.171 1.308-4.48 1.045-1.257 2.535-1.94 4.145-2.083z"></path>
<path d="M21.17 12.803l-0.062-0.004c-3.203 0.436-7.041 1.982-9.046 4.612-1.336 1.752-1.832 3.577-1.781 5.756 1.512-2.678 3.597-4.988 6.107-6.765 0.077-0.054 0.157-0.112 0.239-0.173 0.31-0.228 0.654-0.48 0.995-0.58 0.24-0.071 0.394-0.020 0.605 0.102 0.15 0.171 0.278 0.358 0.253 0.598-0.028 0.261-0.29 0.454-0.485 0.597-0.201 0.147-0.405 0.288-0.609 0.429-0.317 0.219-0.634 0.437-0.937 0.679-1.957 1.564-3.855 3.67-5.036 5.891 2.535-0.050 5.315-0.957 7.105-2.804 1.933-1.995 2.662-5.502 2.682-8.225 0.001-0.042-0.002-0.047-0.013-0.073-0.003-0.006-0.006-0.014-0.010-0.023-0.002-0.005-0.004-0.011-0.007-0.017zM21.642 11.341l0.019-0.002c0.081-0.009 0.162-0.017 0.243-0.019 0.168-0.004 0.35 0.034 0.47 0.16 0.196 0.205 0.214 0.522 0.214 0.79-0.005 3.396-0.64 7.408-3.162 9.897-2.255 2.225-5.584 3.2-8.7 3.191-0.021 0.051-0.041 0.101-0.062 0.152l-0.002 0.005c-0.176 0.433-0.352 0.867-0.508 1.308-0.045 0.129-0.098 0.312-0.155 0.512-0.12 0.419-0.26 0.908-0.397 1.112-0.127 0.189-0.323 0.233-0.535 0.268-0.069-0.008-0.135-0.020-0.201-0.041-0.16-0.051-0.308-0.155-0.38-0.31-0.251-0.536 0.47-2.348 0.78-3.128 0.028-0.071 0.053-0.134 0.074-0.186-0.181-0.526-0.306-1.055-0.368-1.609-0.283-2.52 0.575-5.080 2.145-7.047 2.443-3.062 6.746-4.616 10.526-5.053z"></path>
<path d="M21.661 11.339l-0.018 0.002c-3.78 0.437-8.082 1.992-10.526 5.053-1.57 1.968-2.428 4.527-2.145 7.047 0.062 0.553 0.188 1.082 0.368 1.609-0.020 0.052-0.045 0.115-0.074 0.186-0.31 0.78-1.031 2.592-0.78 3.128 0.073 0.155 0.22 0.259 0.38 0.31 0.066 0.021 0.133 0.033 0.201 0.041 0.212-0.035 0.407-0.079 0.535-0.268 0.137-0.204 0.277-0.693 0.397-1.111 0.057-0.2 0.11-0.383 0.155-0.512 0.155-0.441 0.332-0.875 0.508-1.308 0.001-0.002 0.001-0.003 0.002-0.005 0.021-0.051 0.041-0.101 0.062-0.152 3.117 0.009 6.446-0.966 8.7-3.191 2.522-2.488 3.157-6.501 3.162-9.897 0-0.268-0.018-0.585-0.214-0.79-0.12-0.126-0.302-0.164-0.47-0.16-0.081 0.002-0.162 0.010-0.243 0.019zM21.108 12.799l0.062 0.004c0.003 0.007 0.005 0.012 0.007 0.017 0.004 0.010 0.007 0.017 0.010 0.023 0.011 0.026 0.014 0.031 0.013 0.073-0.020 2.724-0.749 6.231-2.682 8.225-1.79 1.847-4.57 2.754-7.105 2.804 1.181-2.221 3.078-4.327 5.036-5.891 0.303-0.242 0.62-0.46 0.937-0.679 0.204-0.141 0.408-0.282 0.609-0.429 0.195-0.143 0.457-0.337 0.485-0.597 0.025-0.24-0.102-0.426-0.253-0.598-0.21-0.122-0.365-0.173-0.605-0.102-0.341 0.1-0.685 0.353-0.995 0.58-0.082 0.060-0.162 0.119-0.239 0.173-2.51 1.777-4.595 4.087-6.107 6.765-0.051-2.179 0.445-4.004 1.781-5.756 2.005-2.63 5.843-4.175 9.046-4.612z"></path>
<path d="M70.327 20.57c-0.095-2.677-2.341-4.771-5.018-4.677s-4.772 2.341-4.677 5.018c0.094 2.678 2.342 4.771 5.019 4.677s4.771-2.342 4.676-5.019zM65.478 17.348c0.781 0.032 1.414 0.219 2.009 0.747 0.709 0.628 1.105 1.535 1.157 2.474s-0.244 1.894-0.884 2.594c-0.585 0.64-1.314 0.927-2.169 0.97-0.78-0.008-1.424-0.13-2.039-0.642-0.719-0.598-1.125-1.483-1.202-2.407-0.079-0.961 0.172-1.954 0.81-2.69 0.632-0.73 1.379-0.982 2.318-1.046z"></path>
<path d="M56.846 20.168c-0.319-2.662-2.738-4.56-5.4-4.236-2.654 0.323-4.546 2.735-4.228 5.39s2.726 4.551 5.382 4.238c2.663-0.314 4.565-2.73 4.246-5.392zM51.602 17.388c0.776-0.063 1.48 0.018 2.136 0.47 0.736 0.506 1.199 1.289 1.352 2.162 0.174 0.992 0.011 2.053-0.586 2.88-0.523 0.724-1.176 1.083-2.045 1.222-0.795 0.041-1.496-0.008-2.166-0.481-0.722-0.509-1.208-1.286-1.349-2.158-0.162-0.961 0.032-2.068 0.606-2.867 0.504-0.703 1.209-1.092 2.052-1.227z"></path>
<path d="M80.496 15.887c-0.024 0.001-0.048 0.003-0.072 0.006-1.221 0.144-2.321 0.735-3.088 1.704-0.876 1.106-1.176 2.509-1.004 3.896 0.141 1.218 0.765 2.329 1.731 3.086 1.144 0.889 2.595 1.115 4.009 0.922 0.818-0.112 2.048-0.504 2.571-1.185 0.147-0.191 0.221-0.425 0.187-0.666-0.024-0.169-0.098-0.331-0.238-0.435-0.16-0.119-0.374-0.134-0.564-0.097-0.264 0.052-0.502 0.215-0.727 0.37-0.047 0.033-0.094 0.065-0.141 0.096-0.987 0.513-2.082 0.754-3.169 0.402-0.773-0.254-1.411-0.809-1.77-1.54-0.188-0.373-0.281-0.77-0.364-1.177h4.66c0.194 0 0.402 0.007 0.616 0.014 0.552 0.018 1.144 0.037 1.632-0.051 0.139-0.025 0.272-0.099 0.373-0.198 0.229-0.223 0.27-0.539 0.263-0.844-0.026-1.168-0.574-2.319-1.424-3.109-0.981-0.912-2.163-1.255-3.482-1.196zM80.64 17.346c0.707-0.083 1.421 0.098 2.003 0.508 0.697 0.495 1.063 1.198 1.209 2.026-0.591 0.007-1.182 0.006-1.773 0.004-0.296-0.001-0.591-0.002-0.887-0.001l-3.278 0.004c0.15-0.504 0.324-0.962 0.647-1.385 0.52-0.68 1.239-1.045 2.078-1.156z"></path>
<path d="M54.541 12.421c1.749-0.041 3.508-0.003 5.258-0.006 0.997-0.002 2.27-0.083 3.238 0.017 0.156 0.016 0.28 0.060 0.398 0.164 0.168 0.147 0.281 0.369 0.287 0.594 0.005 0.203-0.12 0.436-0.266 0.573-0.112 0.104-0.246 0.145-0.393 0.169-0.403 0.065-0.848 0.027-1.256 0.027l-2.172-0.004-0.001 8.060c0.003 0.679 0.089 2.161-0.013 2.738-0.032 0.181-0.098 0.362-0.223 0.501-0.134 0.149-0.319 0.224-0.519 0.229-0.209 0.005-0.412-0.041-0.563-0.193-0.177-0.177-0.242-0.439-0.264-0.681-0.040-0.447-0.003-0.921 0.002-1.37 0.008-0.665 0.002-1.33 0.001-1.995l0.005-7.29c-0.722 0.003-3.223 0.118-3.734-0.114-0.187-0.085-0.305-0.216-0.372-0.41-0.072-0.207-0.040-0.428 0.065-0.618 0.122-0.222 0.286-0.318 0.521-0.39z"></path>
<path d="M43.099 15.893c0.65-0.037 1.285 0.005 1.916 0.174 0.666 0.178 1.685 0.571 2.029 1.203 0.095 0.174 0.144 0.382 0.077 0.575-0.068 0.196-0.255 0.346-0.443 0.423-0.548 0.225-1.234-0.53-1.749-0.724-0.838-0.316-1.846-0.299-2.662 0.082-0.749 0.35-1.288 1.012-1.567 1.782-0.324 0.893-0.351 2.058 0.060 2.928 0.381 0.807 1.082 1.37 1.914 1.664 0.952 0.337 1.943 0.157 2.833-0.269 0.276-0.149 0.526-0.348 0.84-0.413 0.163-0.033 0.322-0.016 0.461 0.080 0.17 0.118 0.308 0.352 0.331 0.558 0.021 0.193-0.054 0.371-0.174 0.52-0.52 0.645-1.678 0.969-2.467 1.066-1.368 0.168-2.793-0.106-3.888-0.979-1.029-0.804-1.684-1.995-1.812-3.295-0.136-1.295 0.244-2.591 1.057-3.608 0.824-1.013 1.948-1.626 3.243-1.765z"></path>
<path d="M72.317 13.446c0.027-0.001 0.054-0.003 0.081-0.003 0.243-0.008 0.486 0.057 0.658 0.236 0.409 0.427 0.247 1.867 0.242 2.456 0.557 0.003 1.912-0.17 2.329 0.201 0.151 0.135 0.212 0.321 0.213 0.52 0.001 0.193-0.049 0.378-0.192 0.514-0.39 0.369-1.798 0.224-2.35 0.221 0.005 1.184-0.155 4.833 0.21 5.731 0.59 1.452 1.868 0.175 2.597 0.518 0.156 0.074 0.284 0.229 0.342 0.39 0.082 0.23 0.009 0.436-0.086 0.647-0.016 0.018-0.032 0.035-0.049 0.053-0.44 0.459-1.268 0.569-1.876 0.578-0.705 0.010-1.372-0.11-1.893-0.631-0.376-0.377-0.611-0.895-0.725-1.41-0.177-0.795-0.104-1.676-0.104-2.487l0.002-3.388c-0.428-0-0.856-0.003-1.283-0.010-0.071-0.044-0.139-0.089-0.201-0.145-0.169-0.152-0.246-0.379-0.252-0.603-0.005-0.187 0.052-0.372 0.192-0.502 0.345-0.32 1.106-0.205 1.545-0.198-0.001-0.616-0.136-1.721 0.096-2.264 0.103-0.241 0.272-0.328 0.504-0.424z"></path>
<path d="M38.386 13.215c-0.737-0.072-4.344-0.047-5.595-0.028-0.23 0.003-0.444 0.019-0.631 0.033-0.159 0.012-0.3 0.022-0.416 0.022 0 0-0.498 0.117-0.659 0.341-0.106 0.147-0.142 0.333-0.167 0.509-0.134 0.932-0.212 1.882-0.29 2.83-0.041 0.499-0.082 0.996-0.131 1.49l-0.475 4.79c-0.013 0.128-0.034 0.303-0.059 0.501-0.080 0.642-0.192 1.53-0.12 1.884 0.040 0.196 0.144 0.358 0.317 0.46 0.171 0.101 0.365 0.158 0.559 0.191h0.002c0.402-0.001 1.009 0.005 1.687 0.012 1.406 0.015 4.98 0.032 5.811-0.003 0.166-0.007 0.342-0.021 0.498-0.080 0.21-0.080 0.382-0.231 0.465-0.443 0.084-0.213 0.065-0.451-0.029-0.656-0.095-0.207-0.224-0.317-0.44-0.387h-7.185c0.12-1.058 0.227-2.117 0.322-3.177l0.085-0.862 0.008-0.085c0.056 0.001 0.13 0.002 0.218 0.003 0.732 0.011 4.293 0.037 4.747-0.031 0.167-0.025 0.322-0.067 0.444-0.189 0.157-0.159 0.223-0.379 0.21-0.6-0.011-0.187-0.094-0.391-0.237-0.517-0.095-0.084-0.213-0.138-0.339-0.156-0.424-0.062-3.591-0.045-4.39-0.035-0.214 0.003-0.392 0.005-0.508 0.005l0.364-4.297h3.877c0.198 0 0.404 0.007 0.613 0.013 0.506 0.016 1.031 0.033 1.501-0.040 0.167-0.026 0.311-0.083 0.432-0.205 0.149-0.149 0.23-0.375 0.218-0.585-0.012-0.214-0.127-0.417-0.294-0.549-0.127-0.1-0.256-0.145-0.416-0.16z"></path>
</symbol>
</defs>
</svg>
